<?xml version="1.0" encoding="UTF-8"?>
<svg id="Layer_1" xmlns="http://www.w3.org/2000/svg" version="1.1" viewBox="0 0 593.26 176">
  <!-- Generator: Adobe Illustrator 29.8.1, SVG Export Plug-In . SVG Version: 2.1.1 Build 2)  -->
  <polygon points="192.48 141.53 189.88 141.53 185.05 147.34 180.94 143.99 180.94 116.71 174.33 110.11 167.83 116.61 167.83 144.76 180.94 155.43 180.95 155.42 192.48 141.53"/>
  <polygon points="125.5 135.9 125.5 69.79 112.39 85.6 112.39 129.92 128.24 149.02 165.46 149.02 149.67 135.9 125.5 135.9"/>
  <path d="M180.94,64.56c1-.47,1.13-.53,2.13-1l3.33,2.76h3.13l-24.39-20.24h-35.26l-15.81,13.11h56.16l5.17,4.29v17.67l-.1-.12-10.21-12.29h-38.22l15.8,13.11h15.46v55l2,1.62v-56.62h7.7v21.73l6.5,6.51,6.61-6.61v-38.93Z"/>
  <polygon points="416.58 123.87 416.58 130.73 384.39 92.13 381.57 91.87 416.58 133.85 416.58 137.87 388.24 137.87 373.68 120.8 373.68 141.63 388.84 150.98 413.84 150.98 429.69 131.89 429.69 117.22 410.92 94.6 401.19 93.69 400.22 104.16 416.58 123.87"/>
  <polygon points="415.13 58.52 429.69 75.59 429.69 54.76 414.52 45.41 389.53 45.41 365.3 74.6 367.89 74.6 373.68 67.63 373.68 72.18 390.72 92.72 401.19 93.69 402.1 83.97 386.79 65.53 386.79 58.52 415.13 58.52"/>
  <polygon points="559.6 123.87 559.6 130.73 527.42 92.13 524.6 91.87 559.6 133.85 559.6 137.87 531.26 137.87 516.7 120.8 516.7 141.63 531.87 150.98 556.86 150.98 572.72 131.89 572.72 117.22 553.95 94.6 544.22 93.69 543.24 104.16 559.6 123.87"/>
  <polygon points="558.16 58.52 572.72 75.59 572.72 54.76 557.55 45.41 532.56 45.41 508.32 74.6 510.92 74.6 516.7 67.63 516.7 72.18 533.75 92.72 544.22 93.69 545.12 83.97 529.82 65.53 529.82 58.52 558.16 58.52"/>
  <path d="M583.91,74.6v-35.61l-4.9-4.9-127.14.03-8.62-10.39-93.23.02-8.56-10.31H117.83c-.45-1.94-2.19-3.39-4.27-3.39-2.42,0-4.39,1.97-4.39,4.39,0,2.42,1.97,4.39,4.39,4.39,2.08,0,3.81-1.45,4.27-3.39h222.69l6.9,8.31-83.53.02c-.45-1.94-2.19-3.39-4.27-3.39-2.42,0-4.39,1.97-4.39,4.39s1.97,4.39,4.39,4.39c2.08,0,3.81-1.45,4.27-3.39l178.41-.03,8.62,10.39,127.25-.03,3.73,3.73v34.78c-1.94.45-3.39,2.19-3.39,4.27,0,2.42,1.97,4.39,4.39,4.39s4.39-1.97,4.39-4.39c0-2.08-1.45-3.81-3.39-4.27Z"/>
  <path d="M575.79,13.45h-213.44c-.45-1.94-2.19-3.39-4.27-3.39-2.42,0-4.39,1.96-4.39,4.39s1.97,4.39,4.39,4.39c2.08,0,3.82-1.45,4.27-3.39h87.56l8.63,10.39,124.63-.07,8.1,9.75v48.68l-9.45,11.37v20.47c-1.89.49-3.3,2.19-3.3,4.24,0,2.43,1.96,4.39,4.39,4.39s4.39-1.96,4.39-4.39c0-2.05-1.41-3.75-3.31-4.24v-19.69l7.28-8.76v48.78h-9.36v20.12l-3.73,3.73h-60.56c-.45-1.94-2.18-3.39-4.26-3.39-2.43,0-4.39,1.97-4.39,4.39s1.96,4.39,4.39,4.39c2.08,0,3.81-1.45,4.26-3.39h42.61l6.97,8.39h-61.84l-8.63-10.39h-104.47c-.46-1.94-2.19-3.39-4.27-3.39-2.42,0-4.39,1.97-4.39,4.39s1.97,4.39,4.39,4.39c2.08,0,3.81-1.45,4.27-3.39h103.54l6.96,8.39h-122.77l-8.62-10.39h-121.42c-.45-1.94-2.19-3.39-4.27-3.39-2.42,0-4.39,1.97-4.39,4.39s1.97,4.39,4.39,4.39c2.08,0,3.82-1.45,4.27-3.39h44.67l8.62,10.39h280.87l9.15-11.03V34.8l-17.47-21.35Z"/>
  <polygon points=".79 66.33 4 69.54 3.49 66.21 14.51 52.92 18.62 56.26 18.62 69.89 24.9 76.17 31.74 69.32 31.74 29.04 .79 66.33"/>
  <polygon points="18.62 139.41 14.51 142.75 9.2 136.36 9.71 133.02 6.49 136.24 18.62 150.84 18.62 150.83 18.62 150.84 18.62 150.83 31.74 135.04 31.74 83.01 24.9 76.17 18.62 82.44 18.62 139.41"/>
  <polygon points="2.76 21.11 14.21 8.51 30.13 8.51 38.55 15.11 64.42 15.11 84.29 30.62 84.29 57.04 60.34 57.04 41.05 72.15 83.31 72.15 102.6 57.04 102.52 57.04 102.52 26.49 88.01 15.11 69.09 .29 68.74 0 19.62 0 19.27 0 0 21.16 0 21.16 0 21.16 0 21.16 0 21.16 3.22 24.38 2.76 21.11"/>
  <polygon points="102.12 94.77 86.27 75.67 51.04 75.67 66.83 88.79 89 88.79 89 108 95.43 114.43 102.12 107.73 102.12 94.77"/>
  <polygon points="89 149.9 102.12 134.1 102.12 121.14 95.43 114.43 89 120.87 89 149.9"/>
  <path d="M286.62,167.22c-2.08,0-3.81,1.45-4.27,3.39H91.55l-8.62-10.39h-24.58c-.45-1.94-2.19-3.39-4.27-3.39-.7,0-1.35.18-1.94.47l-12.98-15.63V20.1s-2,2.4-2,2.4v119.88s13.43,16.18,13.43,16.18c-.56.74-.91,1.65-.91,2.65,0,2.42,1.97,4.39,4.39,4.39,2.08,0,3.81-1.45,4.27-3.39h23.65l8.62,10.39h191.74c.45,1.94,2.19,3.39,4.27,3.39,2.42,0,4.39-1.97,4.39-4.39s-1.97-4.39-4.39-4.39Z"/>
  <polygon points="261.52 43.96 243.47 58.23 231.63 43.96 213.58 58.23 201.73 43.96 189.57 53.57 192.79 53.57 200.24 47.69 201.73 49.49 201.73 138.96 214.86 154.76 214.86 59.76 214.85 59.76 229.87 47.89 231.63 50.01 231.63 124.58 244.74 140.38 244.74 59.76 244.74 59.76 259.58 48.04 261.52 50.37 261.52 92.55 267.88 98.9 274.63 92.15 274.63 59.76 261.52 43.96"/>
  <path d="M261.51,105.26v43.51l-3.31,3.99h-23.9l-6.19,7.46h-124.3c-.45-1.94-2.19-3.39-4.27-3.39-2.42,0-4.39,1.97-4.39,4.39s1.97,4.39,4.39,4.39c2.08,0,3.81-1.45,4.26-3.39h125.24l6.19-7.46h26.27l13.11-15.8v-33.3l-6.75-6.76-6.36,6.36Z"/>
  <path d="M457.25,87.96h29.9l15.84-13.11h-45.74v-7.1h29.59v-2h-29.59v-7.98h31.18l14.56,17.08v-20.84l-15.17-9.35h-44.33l-8.8-10.6-118.64.02c-.44-1.95-2.18-3.42-4.27-3.42-2.42,0-4.39,1.97-4.39,4.39s1.97,4.39,4.39,4.39c2.07,0,3.8-1.44,4.26-3.37l117.71-.02,8.8,10.6h3.56,0s9.25,0,9.25,0c.5,1.07.57,1.22,1.08,2.29l-12.29,14.81v36.25l6.4,6.41,6.71-6.71v-11.75Z"/>
  <path d="M444.13,124.23c-.77.29-.79.3-1.56.59l-3.89-4.39-2.65-.07,23.96,28.66h27.83l15.17-9.35v-20.84l-14.56,17.08h-31.18v-22.79l-6.71-6.7-6.4,6.4v11.41Z"/>
  <path d="M344.36,46.69h-34.09l-15.23-12.6h-43.41s-8.63-10.32-8.63-10.32h-95.77c-.45-1.94-2.18-3.39-4.26-3.39-2.43,0-4.39,1.97-4.39,4.39s1.96,4.39,4.39,4.39c2.08,0,3.81-1.45,4.26-3.39h48.64l8.63,10.32h89.82s16.11,13.33,16.11,13.33l12.5,10.39h24.17v32.98l6.75,6.77,6.36-6.37v-27.4l-15.85-19.1Z"/>
  <polygon points="347.1 149.9 360.21 134.1 360.21 105.92 353.85 99.55 347.1 106.31 347.1 149.9"/>
  <path d="M325.31,135.32v-66.21l-1.99-1.66h0v68.8l1.98,1.65h-21.03V47.8l-13.11,15.81v61.31c-1.21.45-1.24.46-2.45.92l-3.83-4.41h-2.59s24.73,29.59,24.73,29.59h37.22l-18.91-15.7Z"/>
</svg>