<?xml version="1.0" encoding="UTF-8"?>
<svg id="Layer_1" xmlns="http://www.w3.org/2000/svg" version="1.1" viewBox="0 0 176 178.45">
  <!-- Generator: Adobe Illustrator 29.8.1, SVG Export Plug-In . SVG Version: 2.1.1 Build 2)  -->
  <polygon points="68.06 53.52 43.77 82.78 46.3 85.3 45.89 82.68 54.54 72.26 57.76 74.88 57.76 85.57 62.69 90.5 68.06 85.13 68.06 53.52"/>
  <polygon points="48.25 137.64 57.76 149.1 57.77 149.1 57.77 149.1 57.77 149.1 68.06 136.7 68.06 95.87 62.69 90.5 57.76 95.43 57.76 140.13 54.54 142.76 50.37 137.74 50.77 135.12 48.25 137.64"/>
  <polygon points="45.32 47.29 54.31 37.4 66.8 37.4 73.41 42.58 93.71 42.58 109.3 54.75 109.3 75.48 90.51 75.48 75.37 87.35 108.54 87.35 123.68 75.48 123.61 75.48 123.61 51.51 97.38 30.95 97.1 30.72 58.56 30.72 58.27 30.72 43.16 47.33 43.15 47.33 43.15 47.33 43.15 47.33 43.16 47.33 45.68 49.85 45.32 47.29"/>
  <polygon points="123.3 105.1 110.86 90.11 83.21 90.11 95.61 100.4 113 100.4 113 115.48 118.05 120.53 123.3 115.27 123.3 105.1"/>
  <polygon points="113 148.37 123.3 135.97 123.3 125.79 118.05 120.53 113 125.58 113 148.37"/>
  <path d="M6.81,120.22c-3.63-9.94-5.38-20.48-5.24-31,.25-19.23,6.97-41.66,25.29-59.98,13.47-13.47,31.09-22.12,49.89-24.59.48,1.34,1.75,2.3,3.26,2.3,1.92,0,3.48-1.56,3.48-3.48S81.91,0,79.99,0C78.2,0,76.74,1.36,76.56,3.11c-19.15,2.51-37.09,11.32-50.81,25.03C8.33,45.56.29,67.69,0,89.22c-.14,10.71,1.64,21.44,5.34,31.55-1.34.91-1.91,2.66-1.26,4.21.74,1.77,2.77,2.61,4.54,1.87,1.77-.74,2.61-2.77,1.87-4.54-.62-1.5-2.17-2.31-3.7-2.09Z"/>
  <path d="M150.26,28.14c-13.74-13.74-31.69-22.55-50.88-25.04C99.19,1.36,97.73,0,95.94,0,94.02,0,92.47,1.56,92.47,3.48s1.56,3.48,3.48,3.48c1.51,0,2.78-.97,3.26-2.31,18.83,2.46,36.46,11.11,49.95,24.6,33.72,33.72,33.72,88.59,0,122.31-2.77,2.77-5.74,5.36-8.85,7.72-.25-.21-.53-.39-.84-.52-1.77-.74-3.81.09-4.55,1.86-.74,1.77.09,3.81,1.86,4.55,1.77.74,3.81-.09,4.55-1.86.39-.94.34-1.94-.06-2.8,3.16-2.4,6.17-5.03,8.99-7.85,34.33-34.33,34.33-90.18,0-124.51Z"/>
  <path d="M140.77,112.31c-1.5-.18-3,.62-3.62,2.09-.74,1.77.09,3.81,1.86,4.55s3.81-.09,4.55-1.86c.66-1.58.07-3.36-1.32-4.26,5.37-14.8,5.46-30.77.23-45.63,1.34-.9,1.91-2.64,1.28-4.19-.72-1.78-2.75-2.63-4.53-1.91-1.78.72-2.63,2.75-1.91,4.53.61,1.5,2.16,2.33,3.7,2.12,5.1,14.51,5.01,30.1-.24,44.56Z"/>
  <path d="M165.82,90.39c0-19.65-7.24-38.18-20.45-52.56.61-.92.77-2.12.32-3.23-.72-1.78-2.75-2.63-4.53-1.91-1.78.72-2.63,2.75-1.91,4.53.72,1.78,2.75,2.63,4.53,1.91.16-.07.3-.15.45-.24,12.94,14.1,20.03,32.25,20.03,51.5,0,45.33-36.72,65.23-36.72,65.23l-1.2,12.32c-3.65,1.81-18.84,8.95-38.36,8.95-10.24,0-20.46-1.82-30.17-5.43.21-1.53-.61-3.06-2.11-3.68-1.77-.73-3.81.11-4.54,1.89-.73,1.77.11,3.81,1.89,4.54,1.56.64,3.31.07,4.21-1.28,9.88,3.68,20.28,5.53,30.71,5.53,22.79,0,39.82-9.5,39.82-9.5l1.21-12.41c23.05-14.32,36.8-39.02,36.8-66.15Z"/>
  <path d="M50.45,24.05c5.95-3.37,12.16-5.89,18.51-7.57l9.4,8.2.35-.05c3.05-.43,6.18-.64,9.29-.64,14.54,0,28.34,4.62,39.92,13.34h0s0,0,0,0c28.17,21.25,26.47,52.12,26.47,53.07,0,17.01-6.48,34.01-19.43,46.96-17.73,17.73-38.28,19.11-43.78,19.37-.4-1.49-1.74-2.59-3.35-2.59-.82,0-1.57.3-2.17.78l-11.77-9.08v-20.92h-.02V46.5l-1.57,1.89v83.19l.03-.03v15.06l12.36,9.54c-.21.45-.34.95-.34,1.48,0,1.92,1.56,3.48,3.48,3.48,1.69,0,3.1-1.21,3.41-2.81,7.79-.37,27.67-2.68,44.82-19.83,13.25-13.25,19.88-30.66,19.88-48.06,0-1.08,1.32-32.63-26.8-54.09l-.85-12.51-.35-.21c-24.3-14.56-53.56-14.89-78.27-.89C25.96,36.14,11.42,59.98,10.28,86.95c-.64.13-1.26.44-1.76.94-1.36,1.36-1.36,3.56,0,4.92s3.56,1.36,4.92,0c1.36-1.36,1.36-3.56,0-4.92-.46-.46-1.01-.75-1.6-.9.49-11.68,3.55-22.77,8.83-32.64l3.39,9.94c-6.3,15.64-6.6,32.7-.9,48.46-1.34.91-1.9,2.67-1.25,4.22.74,1.77,2.78,2.6,4.55,1.86,1.77-.74,2.6-2.78,1.86-4.55-.63-1.49-2.17-2.3-3.7-2.08-5.59-15.47-5.26-32.25.99-47.59l.11-.27-4.04-11.82c6.65-11.64,16.44-21.49,28.76-28.47Z"/>
</svg>