<?xml version="1.0" encoding="UTF-8"?>
<svg id="Layer_2" data-name="Layer 2" xmlns="http://www.w3.org/2000/svg" viewBox="0 0 446.88 792.94">
  <defs>
    <style>
      .cls-1 {
        fill: #fff;
      }
    </style>
  </defs>
  <g id="Story_telling" data-name="Story telling">
    <g>
      <g>
        <path d="M419.21,791.94H27.67l-26.67-26.67V27.67C11.41,17.25,17.25,11.41,27.67,1h391.54c10.41,10.41,16.25,16.25,26.67,26.67v737.61c-10.41,10.41-16.25,16.25-26.67,26.67Z"/>
        <path class="cls-1" d="M419.62,792.94H27.25l-27.25-27.25V27.25L27.25,0h392.37l27.25,27.25v738.44l-27.25,27.25ZM28.08,790.94h390.71l26.08-26.08V28.08l-26.08-26.08H28.08L2,28.08v736.78l26.08,26.08Z"/>
      </g>
      <g>
        <polygon class="cls-1" points="196.26 23.92 65.58 23.92 65.4 23.81 28.77 1.64 29.54 .36 66 22.42 196.26 22.42 196.26 23.92"/>
        <path class="cls-1" d="M195.98,17.53c3.11,0,5.64,2.53,5.64,5.64s-2.53,5.64-5.64,5.64-5.64-2.53-5.64-5.64,2.53-5.64,5.64-5.64Z"/>
      </g>
      <g>
        <polygon class="cls-1" points="383.09 23.92 250.62 23.92 250.62 22.42 382.66 22.42 417.32 .37 418.12 1.63 383.09 23.92"/>
        <path class="cls-1" d="M250.9,17.53c-3.11,0-5.64,2.53-5.64,5.64s2.53,5.64,5.64,5.64,5.64-2.53,5.64-5.64-2.53-5.64-5.64-5.64Z"/>
      </g>
      <g>
        <polygon class="cls-1" points="14.42 777.31 13.47 776.16 65.52 733.36 196.26 733.36 196.26 734.86 66.06 734.86 14.42 777.31"/>
        <path class="cls-1" d="M195.98,728.47c3.11,0,5.64,2.53,5.64,5.64s-2.53,5.64-5.64,5.64-5.64-2.53-5.64-5.64,2.53-5.64,5.64-5.64Z"/>
      </g>
      <g>
        <polygon class="cls-1" points="433.35 776.41 382.61 734.86 250.62 734.86 250.62 733.36 383.14 733.36 383.35 733.53 434.3 775.25 433.35 776.41"/>
        <path class="cls-1" d="M250.9,728.47c-3.11,0-5.64,2.53-5.64,5.64s2.53,5.64,5.64,5.64,5.64-2.53,5.64-5.64-2.53-5.64-5.64-5.64Z"/>
      </g>
    </g>
  </g>
</svg>